<svg width="241" height="71" viewBox="0 0 241 71" fill="none" xmlns="http://www.w3.org/2000/svg">
<path d="M27.2786 47.344C27.1706 47.344 27.1166 47.308 27.1166 47.236V47.182C27.6206 46.714 28.1966 46.102 28.8446 45.346C29.5286 44.59 30.1226 43.798 30.6266 42.97C31.1666 42.142 31.4366 41.386 31.4366 40.702C31.4366 40.126 31.1486 39.676 30.5726 39.352C30.0326 38.992 29.3306 38.722 28.4666 38.542C27.6026 38.326 26.6846 38.182 25.7126 38.11C24.7766 38.038 23.9126 38.002 23.1206 38.002C22.6886 38.002 22.2926 38.002 21.9326 38.002C21.5726 38.002 21.2846 38.02 21.0686 38.056C17.8286 38.308 14.6966 38.668 11.6726 39.136C8.6846 39.604 5.9126 40.234 3.3566 41.026C3.0326 41.134 2.7086 41.188 2.3846 41.188C1.9526 41.188 1.4666 41.026 0.926602 40.702C0.386602 40.378 0.116602 39.874 0.116602 39.19C0.116602 38.758 0.278602 38.308 0.602602 37.84C1.5386 36.004 2.8346 33.934 4.4906 31.63C6.1466 29.326 7.9826 26.95 9.9986 24.502C12.0146 22.054 14.0846 19.66 16.2086 17.32C18.3326 14.944 20.3486 12.748 22.2566 10.732C24.1646 8.716 25.8026 7.042 27.1706 5.71C27.3506 5.638 27.5126 5.566 27.6566 5.494C27.8006 5.386 27.9446 5.314 28.0886 5.278C26.9726 5.206 25.5866 4.99 23.9306 4.63C22.3106 4.234 20.2766 4.036 17.8286 4.036C17.0726 4.036 16.2626 4.072 15.3986 4.144C14.5346 4.18 13.6346 4.27 12.6986 4.414C10.8986 4.666 9.3506 5.188 8.0546 5.98C6.7586 6.736 5.7686 7.6 5.0846 8.572C4.4006 9.508 4.0586 10.408 4.0586 11.272C4.0586 12.064 4.3826 12.748 5.0306 13.324C5.7146 13.864 6.7406 14.134 8.1086 14.134H8.8106C9.5306 14.062 10.4126 13.882 11.4566 13.594C12.5366 13.27 13.6526 12.856 14.8046 12.352C15.9926 11.848 17.0726 11.29 18.0446 10.678C18.1166 10.606 18.2606 10.57 18.4766 10.57C18.5846 10.57 18.6386 10.606 18.6386 10.678C18.6386 10.75 18.5666 10.894 18.4226 11.11C18.2786 11.29 17.9906 11.56 17.5586 11.92C16.1186 13.144 14.5706 14.044 12.9146 14.62C11.2586 15.16 9.6746 15.43 8.1626 15.43C7.3346 15.43 6.5066 15.34 5.6786 15.16C4.4186 14.872 3.4106 14.242 2.6546 13.27C1.9346 12.262 1.5746 11.128 1.5746 9.868C1.5746 8.5 2.0606 7.132 3.0326 5.764C4.0046 4.36 5.5526 3.208 7.6766 2.308C9.8366 1.372 12.6626 0.903998 16.1546 0.903998H17.3426C20.1506 1.012 22.6706 1.21 24.9026 1.498C27.1706 1.786 29.1686 2.002 30.8966 2.146C31.4006 2.182 31.7606 2.344 31.9766 2.632C32.2286 2.92 32.3546 3.244 32.3546 3.604C32.3546 4.18 32.1026 4.612 31.5986 4.9C30.2666 5.656 28.7006 6.844 26.9006 8.464C25.1366 10.048 23.2826 11.884 21.3386 13.972C19.4306 16.024 17.5586 18.184 15.7226 20.452C13.2026 23.62 10.9706 26.5 9.0266 29.092C7.1186 31.684 5.4806 34.024 4.1126 36.112C4.9046 35.968 6.1286 35.788 7.7846 35.572C9.4766 35.32 11.3846 35.086 13.5086 34.87C15.6326 34.654 17.7746 34.546 19.9346 34.546C22.2386 34.546 24.3986 34.726 26.4146 35.086C28.4666 35.446 30.1226 36.076 31.3826 36.976C32.6426 37.876 33.2726 39.154 33.2726 40.81C33.2726 42.034 32.8766 43.15 32.0846 44.158C31.3286 45.202 30.4286 46.03 29.3846 46.642C29.1686 46.786 28.8086 46.93 28.3046 47.074C27.8366 47.254 27.4946 47.344 27.2786 47.344ZM36.9674 40.216C36.1754 40.216 35.4554 39.892 34.8074 39.244C34.1954 38.596 33.7454 37.606 33.4574 36.274C33.3134 35.662 33.2054 34.888 33.1334 33.952C33.0974 33.016 33.0794 32.026 33.0794 30.982C33.0794 29.398 33.1334 27.76 33.2414 26.068C33.3854 24.376 33.5654 22.828 33.7814 21.424C33.9974 19.984 34.2494 18.886 34.5374 18.13C34.7174 17.698 35.0414 17.32 35.5094 16.996C36.0134 16.672 36.6614 16.51 37.4534 16.51C37.9934 16.51 38.5334 16.582 39.0734 16.726C38.9654 17.122 38.7494 18.058 38.4254 19.534C38.1374 21.01 37.8854 22.648 37.6694 24.448C37.5254 25.708 37.3994 27.004 37.2914 28.336C37.1834 29.632 37.1294 30.856 37.1294 32.008C37.1294 33.484 37.2554 34.726 37.5074 35.734C37.7594 36.706 38.1734 37.192 38.7494 37.192C39.4334 37.192 40.0274 36.796 40.5314 36.004C41.0714 35.176 41.5394 34.15 41.9354 32.926C42.3314 31.702 42.6374 30.478 42.8534 29.254C43.1774 27.454 43.4654 25.528 43.7174 23.476C43.9694 21.388 44.2574 19.606 44.5814 18.13C44.6894 17.698 44.9954 17.32 45.4994 16.996C46.0394 16.672 46.7054 16.51 47.4974 16.51C48.0374 16.51 48.5774 16.582 49.1174 16.726C48.8294 17.518 48.5414 18.706 48.2534 20.29C48.0014 21.874 47.7854 23.62 47.6054 25.528C47.4254 27.436 47.3354 29.326 47.3354 31.198C47.3354 32.134 47.3714 33.16 47.4434 34.276C47.5514 35.392 47.7494 36.346 48.0374 37.138C48.3614 37.93 48.8114 38.326 49.3874 38.326H49.4414C49.7294 38.326 50.0354 38.182 50.3594 37.894C50.7194 37.606 51.0974 37.066 51.4934 36.274C51.7814 35.77 52.0334 35.176 52.2494 34.492C52.4654 33.808 52.6994 33.07 52.9514 32.278C53.0954 31.954 53.2394 31.792 53.3834 31.792C53.5634 31.792 53.6534 32.008 53.6534 32.44V32.656C53.5814 33.592 53.3294 34.654 52.8974 35.842C52.4654 37.03 51.8534 38.056 51.0614 38.92C50.3054 39.784 49.3874 40.216 48.3074 40.216C47.0834 40.216 46.1114 39.784 45.3914 38.92C44.6714 38.02 44.1494 36.94 43.8254 35.68C43.5014 34.384 43.3034 33.142 43.2314 31.954C42.9794 32.89 42.6914 33.826 42.3674 34.762C42.0434 35.698 41.6474 36.526 41.1794 37.246C39.8834 39.226 38.4794 40.216 36.9674 40.216ZM52.4164 44.968C52.0564 44.968 51.8764 44.716 51.8764 44.212C51.8764 44.104 51.9124 43.942 51.9844 43.726C52.8124 41.602 53.6944 39.55 54.6304 37.57C55.6024 35.554 56.5924 33.574 57.6004 31.63C57.1324 30.406 56.7184 29.2 56.3584 28.012C55.9984 26.824 55.6744 25.744 55.3864 24.772C55.1344 26.752 54.7744 28.75 54.3064 30.766C53.8744 32.782 53.3884 34.492 52.8484 35.896C52.7404 36.22 52.5964 36.382 52.4164 36.382C52.1284 36.382 51.9844 36.148 51.9844 35.68C51.9844 35.608 51.9844 35.518 51.9844 35.41C51.9844 35.302 52.0024 35.23 52.0384 35.194C52.4704 33.898 52.8484 32.44 53.1724 30.82C53.4964 29.164 53.7484 27.436 53.9284 25.636C54.1444 23.836 54.2524 22.108 54.2524 20.452C54.2524 20.272 54.2344 20.11 54.1984 19.966C54.1984 19.786 54.1984 19.624 54.1984 19.48V19.264C54.2344 19.048 54.2704 18.85 54.3064 18.67C54.3784 18.49 54.4504 18.292 54.5224 18.076C54.7744 17.464 55.0984 16.996 55.4944 16.672C55.8904 16.312 56.3944 15.988 57.0064 15.7C57.0784 15.664 57.1864 15.646 57.3304 15.646C57.7264 15.646 57.9604 15.952 58.0324 16.564C58.1044 17.284 58.2664 18.652 58.5184 20.668C58.7704 22.684 59.2384 24.916 59.9224 27.364C60.4264 26.464 60.9484 25.564 61.4884 24.664C62.0284 23.764 62.5864 22.864 63.1624 21.964C63.8824 20.74 64.5304 19.714 65.1064 18.886C65.6824 18.022 66.0424 17.572 66.1864 17.536C66.2584 17.5 66.4024 17.482 66.6184 17.482C66.9064 17.482 67.1944 17.608 67.4824 17.86C67.7704 18.076 67.9144 18.454 67.9144 18.994V19.102C67.9144 19.246 67.6804 19.75 67.2124 20.614C66.7804 21.442 66.1864 22.36 65.4304 23.368C64.8544 24.124 64.1524 25.024 63.3244 26.068C62.4964 27.112 61.5964 28.336 60.6244 29.74C60.9124 30.568 61.2724 31.504 61.7044 32.548C62.1724 33.592 62.7124 34.618 63.3244 35.626C63.9364 36.598 64.5844 37.408 65.2684 38.056C65.9524 38.668 66.6724 38.974 67.4284 38.974C67.7524 38.974 68.0404 38.92 68.2924 38.812C69.1204 38.452 69.7864 37.822 70.2904 36.922C70.8304 36.022 71.2624 35.05 71.5864 34.006C71.9104 32.962 72.1804 32.044 72.3964 31.252C72.5044 30.82 72.6304 30.604 72.7744 30.604C73.0984 30.604 73.2604 30.73 73.2604 30.982C73.2964 31.234 73.2964 31.468 73.2604 31.684C73.1524 32.332 72.9904 33.052 72.7744 33.844C72.5584 34.6 72.3604 35.212 72.1804 35.68C71.6044 37.12 70.7764 38.344 69.6964 39.352C68.6524 40.36 67.2844 40.864 65.5924 40.864C64.2604 40.864 63.1084 40.486 62.1364 39.73C61.1644 38.974 60.3724 38.02 59.7604 36.868C59.1484 35.716 58.6624 34.564 58.3024 33.412C57.4024 34.924 56.4844 36.598 55.5484 38.434C54.6484 40.27 53.7664 42.304 52.9024 44.536C52.7944 44.824 52.6324 44.968 52.4164 44.968ZM82.2485 40.27C81.0605 40.27 80.1245 39.892 79.4405 39.136C78.7565 38.344 78.2705 37.336 77.9825 36.112C77.7305 34.852 77.6045 33.502 77.6045 32.062C77.6045 30.514 77.6945 29.002 77.8745 27.526C78.0905 26.014 78.3065 24.682 78.5225 23.53C78.7745 22.378 78.9545 21.586 79.0625 21.154C78.0545 21.082 77.2625 20.92 76.6865 20.668C76.1105 20.416 75.6245 20.11 75.2285 19.75C75.0845 21.478 74.8505 23.332 74.5265 25.312C74.2385 27.292 73.8965 29.2 73.5005 31.036C73.1045 32.836 72.6725 34.384 72.2045 35.68C72.0605 36.148 71.8265 36.382 71.5025 36.382C71.2505 36.382 71.1245 36.22 71.1245 35.896C71.1245 35.824 71.1245 35.734 71.1245 35.626C71.1605 35.518 71.1965 35.41 71.2325 35.302C71.8085 33.646 72.2945 31.846 72.6905 29.902C73.0865 27.922 73.3925 26.014 73.6085 24.178C73.8245 22.342 73.9325 20.812 73.9325 19.588V18.994C73.0325 18.598 72.3665 18.022 71.9345 17.266C71.5385 16.51 71.3405 15.79 71.3405 15.106C71.3405 14.602 71.4305 14.152 71.6105 13.756C71.8265 13.36 72.1325 13.162 72.5285 13.162H72.6365C73.1405 13.162 73.5905 13.522 73.9865 14.242C74.3825 14.926 74.7065 15.7 74.9585 16.564C75.2105 17.392 75.3365 18.058 75.3365 18.562C75.7685 18.886 76.2365 19.12 76.7405 19.264C77.2805 19.408 77.7305 19.48 78.0905 19.48C78.5585 19.48 78.8645 19.408 79.0085 19.264C79.2965 18.976 79.6385 18.562 80.0345 18.022C80.4665 17.482 81.1325 17.212 82.0325 17.212C82.6445 17.212 83.3825 17.392 84.2465 17.752C83.8145 18.652 83.4185 19.678 83.0585 20.83C82.6985 21.946 82.3925 23.134 82.1405 24.394C82.1045 24.682 82.0145 25.258 81.8705 26.122C81.7265 26.986 81.6005 27.976 81.4925 29.092C81.3845 30.208 81.3305 31.324 81.3305 32.44C81.3305 34.024 81.4925 35.428 81.8165 36.652C82.1765 37.84 82.8245 38.434 83.7605 38.434C84.3365 38.434 84.8405 38.2 85.2725 37.732C85.7045 37.264 86.0825 36.688 86.4065 36.004C86.7305 35.284 87.0005 34.6 87.2165 33.952C87.4325 33.268 87.5945 32.728 87.7025 32.332C87.7745 32.008 87.9185 31.846 88.1345 31.846C88.3145 31.846 88.4045 32.044 88.4045 32.44V32.71C88.4045 34.366 88.0985 35.77 87.4865 36.922C86.9105 38.038 86.1545 38.884 85.2185 39.46C84.2825 40 83.2925 40.27 82.2485 40.27ZM103.044 40.27C101.928 40.27 101.028 39.928 100.344 39.244C99.6604 38.524 99.1204 37.624 98.7244 36.544C98.3644 35.428 98.1124 34.312 97.9684 33.196C97.8244 32.044 97.7524 31.036 97.7524 30.172C97.3204 31.792 96.7624 33.376 96.0784 34.924C95.4304 36.472 94.7104 37.75 93.9184 38.758C93.1264 39.73 92.2624 40.216 91.3264 40.216H91.2724C90.4084 40.216 89.6884 39.82 89.1124 39.028C88.5364 38.2 88.1044 37.12 87.8164 35.788C87.5284 34.456 87.3844 33.016 87.3844 31.468V30.928C87.3844 29.488 87.5104 27.904 87.7624 26.176C88.0144 24.412 88.4644 22.738 89.1124 21.154C89.7604 19.57 90.6424 18.274 91.7584 17.266C92.9104 16.222 94.3684 15.7 96.1324 15.7C96.8164 15.7 97.4284 15.862 97.9684 16.186C98.5444 16.474 98.9584 16.906 99.2104 17.482C99.4624 17.194 99.8044 16.96 100.236 16.78C100.668 16.6 101.19 16.51 101.802 16.51C102.018 16.51 102.252 16.528 102.504 16.564C102.792 16.6 103.08 16.654 103.368 16.726C103.152 17.554 102.9 18.688 102.612 20.128C102.324 21.568 102.072 23.152 101.856 24.88C101.676 26.572 101.586 28.228 101.586 29.848V30.064C101.586 30.748 101.622 31.558 101.694 32.494C101.766 33.43 101.892 34.348 102.072 35.248C102.252 36.148 102.504 36.904 102.828 37.516C103.152 38.128 103.566 38.434 104.07 38.434H104.124C104.412 38.434 104.718 38.29 105.042 38.002C105.402 37.714 105.78 37.174 106.176 36.382C106.716 35.338 107.22 33.988 107.688 32.332C107.76 32.008 107.904 31.846 108.12 31.846C108.3 31.846 108.39 32.062 108.39 32.494V32.71C108.318 33.646 108.066 34.708 107.634 35.896C107.202 37.084 106.59 38.11 105.798 38.974C105.042 39.838 104.124 40.27 103.044 40.27ZM93.1624 35.788C93.7384 35.788 94.2604 35.374 94.7284 34.546C95.2324 33.718 95.6824 32.71 96.0784 31.522C96.4744 30.334 96.8164 29.182 97.1044 28.066C97.5364 26.41 97.8244 24.736 97.9684 23.044C98.1124 21.316 98.4184 19.624 98.8864 17.968C98.4544 17.5 97.9684 17.266 97.4284 17.266C96.6364 17.266 95.8264 17.662 94.9984 18.454C94.1704 19.246 93.5224 20.146 93.0544 21.154C92.4784 22.414 92.0464 23.89 91.7584 25.582C91.5064 27.274 91.3804 28.894 91.3804 30.442C91.3804 30.838 91.3804 31.234 91.3804 31.63C91.4164 32.026 91.4524 32.404 91.4884 32.764C91.5604 33.844 91.7584 34.618 92.0824 35.086C92.4424 35.554 92.8024 35.788 93.1624 35.788ZM129.21 42.16C128.598 42.16 128.004 42.142 127.428 42.106C126.888 42.07 126.366 42.016 125.862 41.944C122.982 41.476 120.912 40.738 119.652 39.73C118.392 38.722 117.762 37.606 117.762 36.382C117.762 35.302 118.176 34.222 119.004 33.142C119.868 32.026 121.02 31.018 122.46 30.118C123.936 29.182 125.628 28.444 127.536 27.904C129.444 27.328 131.478 27.04 133.638 27.04C134.214 27.04 134.88 27.094 135.636 27.202C136.392 27.274 136.878 27.364 137.094 27.472C137.31 27.58 137.418 27.724 137.418 27.904C137.418 28.156 137.202 28.282 136.77 28.282H136.446C136.086 28.282 135.708 28.264 135.312 28.228C134.916 28.156 134.52 28.12 134.124 28.12C132.396 28.12 130.758 28.372 129.21 28.876C127.662 29.38 126.294 30.028 125.106 30.82C123.918 31.612 122.982 32.494 122.298 33.466C121.614 34.402 121.272 35.32 121.272 36.22C121.272 37.228 121.722 38.128 122.622 38.92C123.558 39.712 125.07 40.27 127.158 40.594C127.554 40.63 127.968 40.666 128.4 40.702C128.832 40.774 129.246 40.81 129.642 40.81C131.622 40.81 133.512 40.486 135.312 39.838C137.112 39.19 138.714 38.344 140.118 37.3C141.558 36.22 142.692 35.05 143.52 33.79C144.348 32.53 144.762 31.306 144.762 30.118C144.762 29.254 144.51 28.444 144.006 27.688C143.538 26.932 142.746 26.266 141.63 25.69C140.334 25.042 138.93 24.502 137.418 24.07C135.942 23.602 134.448 23.152 132.936 22.72C131.424 22.288 129.984 21.802 128.616 21.262C127.248 20.722 126.042 20.02 124.998 19.156C124.242 18.544 123.684 17.842 123.324 17.05C123 16.258 122.838 15.43 122.838 14.566C122.838 13.522 123.072 12.496 123.54 11.488C124.008 10.444 124.638 9.49 125.43 8.626C126.69 7.294 128.166 6.214 129.858 5.386C131.55 4.522 133.332 3.874 135.204 3.442C137.076 3.01 138.894 2.794 140.658 2.794H140.874C144.294 2.794 146.778 3.334 148.326 4.414C149.91 5.458 150.702 6.664 150.702 8.032C150.702 9.112 150.234 10.192 149.298 11.272C148.362 12.316 147.048 13.198 145.356 13.918C143.664 14.602 141.648 14.944 139.308 14.944H139.092C138.876 14.944 138.678 14.854 138.498 14.674C138.354 14.458 138.282 14.278 138.282 14.134C138.282 13.954 138.372 13.864 138.552 13.864C140.136 13.864 141.63 13.504 143.034 12.784C144.474 12.064 145.626 11.182 146.49 10.138C147.39 9.058 147.84 8.032 147.84 7.06C147.84 6.232 147.408 5.512 146.544 4.9C145.716 4.252 144.294 3.928 142.278 3.928H142.116C140.388 3.928 138.624 4.216 136.824 4.792C135.06 5.368 133.422 6.124 131.91 7.06C130.398 7.996 129.174 9.04 128.238 10.192C127.302 11.308 126.834 12.442 126.834 13.594C126.834 14.278 127.032 14.944 127.428 15.592C127.824 16.24 128.472 16.834 129.372 17.374C130.524 18.094 131.928 18.688 133.584 19.156C135.276 19.624 137.022 20.11 138.822 20.614C140.658 21.082 142.368 21.658 143.952 22.342C145.536 23.026 146.814 23.926 147.786 25.042C148.794 26.122 149.298 27.526 149.298 29.254C149.298 29.614 149.28 29.992 149.244 30.388C149.208 30.784 149.136 31.18 149.028 31.576C148.56 33.484 147.624 35.122 146.22 36.49C144.816 37.822 143.142 38.902 141.198 39.73C139.254 40.558 137.22 41.17 135.096 41.566C133.008 41.962 131.046 42.16 129.21 42.16ZM158.491 41.026C156.763 41.026 155.359 40.504 154.279 39.46C153.235 38.38 152.461 37.066 151.957 35.518C151.489 33.934 151.255 32.386 151.255 30.874C151.255 29.146 151.435 27.418 151.795 25.69C152.155 23.926 152.713 22.324 153.469 20.884C154.261 19.444 155.251 18.292 156.439 17.428C157.627 16.528 159.031 16.078 160.651 16.078C161.803 16.078 162.703 16.42 163.351 17.104C163.999 17.788 164.323 18.796 164.323 20.128C164.323 21.928 163.873 23.53 162.973 24.934C162.109 26.302 161.011 27.418 159.679 28.282C158.347 29.146 156.961 29.74 155.521 30.064V30.334C155.521 31.81 155.665 33.196 155.953 34.492C156.277 35.752 156.781 36.778 157.465 37.57C158.185 38.326 159.121 38.704 160.273 38.704C161.677 38.704 162.757 38.128 163.513 36.976C164.269 35.788 164.863 34.294 165.295 32.494C165.331 32.35 165.385 32.224 165.457 32.116C165.565 31.972 165.655 31.9 165.727 31.9C166.051 31.9 166.195 32.134 166.159 32.602C166.051 33.574 165.835 34.492 165.511 35.356C165.187 36.22 164.845 36.958 164.485 37.57C163.801 38.686 162.973 39.532 162.001 40.108C161.065 40.72 159.895 41.026 158.491 41.026ZM155.575 28.822C156.727 28.534 157.735 27.976 158.599 27.148C159.463 26.284 160.129 25.276 160.597 24.124C161.101 22.972 161.353 21.802 161.353 20.614V20.344C161.353 19.696 161.245 19.084 161.029 18.508C160.849 17.932 160.489 17.644 159.949 17.644C159.301 17.644 158.725 17.968 158.221 18.616C157.753 19.228 157.339 20.02 156.979 20.992C156.655 21.964 156.385 22.972 156.169 24.016C155.953 25.06 155.791 26.014 155.683 26.878C155.611 27.742 155.575 28.372 155.575 28.768V28.822ZM171.92 40.108C171.128 40.108 170.48 39.694 169.976 38.866C169.508 38.002 169.148 36.886 168.896 35.518C168.644 34.114 168.446 32.584 168.302 30.928C168.158 29.272 168.05 27.652 167.978 26.068C167.762 27.112 167.51 28.246 167.222 29.47C166.934 30.658 166.592 31.918 166.196 33.25C166.088 33.646 165.98 34.042 165.872 34.438C165.764 34.798 165.638 35.158 165.494 35.518C165.35 35.986 165.134 36.22 164.846 36.22C164.594 36.22 164.468 36.004 164.468 35.572C164.468 35.284 164.54 34.942 164.684 34.546L165.278 32.71C165.854 30.91 166.286 29.2 166.574 27.58C166.862 25.924 167.078 24.376 167.222 22.936C167.258 22.612 167.276 22.288 167.276 21.964C167.312 21.604 167.33 21.262 167.33 20.938C167.33 20.398 167.312 19.894 167.276 19.426C167.24 18.958 167.204 18.58 167.168 18.292C167.744 17.644 168.482 17.32 169.382 17.32H169.436C170.372 17.32 170.966 17.896 171.218 19.048C171.506 20.2 171.65 21.622 171.65 23.314V24.718C171.65 25.186 171.668 25.888 171.704 26.824C171.74 27.76 171.812 28.786 171.92 29.902C172.028 31.018 172.172 32.08 172.352 33.088C172.532 34.096 172.766 34.942 173.054 35.626C173.342 36.274 173.684 36.598 174.08 36.598C174.692 36.598 175.322 36.04 175.97 34.924C176.618 33.772 177.122 32.476 177.482 31.036C177.554 30.64 177.644 30.208 177.752 29.74C177.86 29.272 177.95 28.768 178.022 28.228C177.842 27.508 177.698 26.734 177.59 25.906C177.482 25.078 177.41 24.304 177.374 23.584C177.338 22.828 177.32 22.27 177.32 21.91C177.32 21.37 177.338 20.668 177.374 19.804C177.41 18.94 177.5 18.076 177.644 17.212C177.824 16.348 178.076 15.628 178.4 15.052C178.724 14.44 179.174 14.134 179.75 14.134C180.254 14.134 180.686 14.494 181.046 15.214C181.298 15.754 181.424 16.618 181.424 17.806C181.424 19.246 181.244 20.938 180.884 22.882C180.524 24.79 180.038 26.752 179.426 28.768C179.75 29.164 180.146 29.47 180.614 29.686C181.082 29.866 181.55 29.956 182.018 29.956C183.206 29.956 184.286 29.596 185.258 28.876C185.51 28.732 185.726 28.66 185.906 28.66C186.014 28.66 186.068 28.75 186.068 28.93C186.068 29.218 185.96 29.434 185.744 29.578C184.556 30.586 183.224 31.09 181.748 31.09C180.668 31.09 179.75 30.766 178.994 30.118C178.382 31.882 177.698 33.538 176.942 35.086C176.186 36.598 175.376 37.822 174.512 38.758C173.684 39.658 172.82 40.108 171.92 40.108ZM199.443 40.27C198.327 40.27 197.427 39.928 196.743 39.244C196.059 38.524 195.519 37.624 195.123 36.544C194.763 35.428 194.511 34.312 194.367 33.196C194.223 32.044 194.151 31.036 194.151 30.172C193.719 31.792 193.161 33.376 192.477 34.924C191.829 36.472 191.109 37.75 190.317 38.758C189.525 39.73 188.661 40.216 187.725 40.216H187.671C186.807 40.216 186.087 39.82 185.511 39.028C184.935 38.2 184.503 37.12 184.215 35.788C183.927 34.456 183.783 33.016 183.783 31.468V30.928C183.783 29.488 183.909 27.904 184.161 26.176C184.413 24.412 184.863 22.738 185.511 21.154C186.159 19.57 187.041 18.274 188.157 17.266C189.309 16.222 190.767 15.7 192.531 15.7C193.215 15.7 193.827 15.862 194.367 16.186C194.943 16.474 195.357 16.906 195.609 17.482C195.861 17.194 196.203 16.96 196.635 16.78C197.067 16.6 197.589 16.51 198.201 16.51C198.417 16.51 198.651 16.528 198.903 16.564C199.191 16.6 199.479 16.654 199.767 16.726C199.551 17.554 199.299 18.688 199.011 20.128C198.723 21.568 198.471 23.152 198.255 24.88C198.075 26.572 197.985 28.228 197.985 29.848V30.064C197.985 30.748 198.021 31.558 198.093 32.494C198.165 33.43 198.291 34.348 198.471 35.248C198.651 36.148 198.903 36.904 199.227 37.516C199.551 38.128 199.965 38.434 200.469 38.434H200.523C200.811 38.434 201.117 38.29 201.441 38.002C201.801 37.714 202.179 37.174 202.575 36.382C203.115 35.338 203.619 33.988 204.087 32.332C204.159 32.008 204.303 31.846 204.519 31.846C204.699 31.846 204.789 32.062 204.789 32.494V32.71C204.717 33.646 204.465 34.708 204.033 35.896C203.601 37.084 202.989 38.11 202.197 38.974C201.441 39.838 200.523 40.27 199.443 40.27ZM189.561 35.788C190.137 35.788 190.659 35.374 191.127 34.546C191.631 33.718 192.081 32.71 192.477 31.522C192.873 30.334 193.215 29.182 193.503 28.066C193.935 26.41 194.223 24.736 194.367 23.044C194.511 21.316 194.817 19.624 195.285 17.968C194.853 17.5 194.367 17.266 193.827 17.266C193.035 17.266 192.225 17.662 191.397 18.454C190.569 19.246 189.921 20.146 189.453 21.154C188.877 22.414 188.445 23.89 188.157 25.582C187.905 27.274 187.779 28.894 187.779 30.442C187.779 30.838 187.779 31.234 187.779 31.63C187.815 32.026 187.851 32.404 187.887 32.764C187.959 33.844 188.157 34.618 188.481 35.086C188.841 35.554 189.201 35.788 189.561 35.788ZM214.137 40.27C212.949 40.27 212.013 39.892 211.329 39.136C210.645 38.344 210.159 37.336 209.871 36.112C209.619 34.852 209.493 33.502 209.493 32.062C209.493 30.514 209.583 29.002 209.763 27.526C209.979 26.014 210.195 24.682 210.411 23.53C210.663 22.378 210.843 21.586 210.951 21.154C209.943 21.082 209.151 20.92 208.575 20.668C207.999 20.416 207.513 20.11 207.117 19.75C206.973 21.478 206.739 23.332 206.415 25.312C206.127 27.292 205.785 29.2 205.389 31.036C204.993 32.836 204.561 34.384 204.093 35.68C203.949 36.148 203.715 36.382 203.391 36.382C203.139 36.382 203.013 36.22 203.013 35.896C203.013 35.824 203.013 35.734 203.013 35.626C203.049 35.518 203.085 35.41 203.121 35.302C203.697 33.646 204.183 31.846 204.579 29.902C204.975 27.922 205.281 26.014 205.497 24.178C205.713 22.342 205.821 20.812 205.821 19.588V18.994C204.921 18.598 204.255 18.022 203.823 17.266C203.427 16.51 203.229 15.79 203.229 15.106C203.229 14.602 203.319 14.152 203.499 13.756C203.715 13.36 204.021 13.162 204.417 13.162H204.525C205.029 13.162 205.479 13.522 205.875 14.242C206.271 14.926 206.595 15.7 206.847 16.564C207.099 17.392 207.225 18.058 207.225 18.562C207.657 18.886 208.125 19.12 208.629 19.264C209.169 19.408 209.619 19.48 209.979 19.48C210.447 19.48 210.753 19.408 210.897 19.264C211.185 18.976 211.527 18.562 211.923 18.022C212.355 17.482 213.021 17.212 213.921 17.212C214.533 17.212 215.271 17.392 216.135 17.752C215.703 18.652 215.307 19.678 214.947 20.83C214.587 21.946 214.281 23.134 214.029 24.394C213.993 24.682 213.903 25.258 213.759 26.122C213.615 26.986 213.489 27.976 213.381 29.092C213.273 30.208 213.219 31.324 213.219 32.44C213.219 34.024 213.381 35.428 213.705 36.652C214.065 37.84 214.713 38.434 215.649 38.434C216.225 38.434 216.729 38.2 217.161 37.732C217.593 37.264 217.971 36.688 218.295 36.004C218.619 35.284 218.889 34.6 219.105 33.952C219.321 33.268 219.483 32.728 219.591 32.332C219.663 32.008 219.807 31.846 220.023 31.846C220.203 31.846 220.293 32.044 220.293 32.44V32.71C220.293 34.366 219.987 35.77 219.375 36.922C218.799 38.038 218.043 38.884 217.107 39.46C216.171 40 215.181 40.27 214.137 40.27ZM234.933 40.27C233.817 40.27 232.917 39.928 232.233 39.244C231.549 38.524 231.009 37.624 230.613 36.544C230.253 35.428 230.001 34.312 229.857 33.196C229.713 32.044 229.641 31.036 229.641 30.172C229.209 31.792 228.651 33.376 227.967 34.924C227.319 36.472 226.599 37.75 225.807 38.758C225.015 39.73 224.151 40.216 223.215 40.216H223.161C222.297 40.216 221.577 39.82 221.001 39.028C220.425 38.2 219.993 37.12 219.705 35.788C219.417 34.456 219.273 33.016 219.273 31.468V30.928C219.273 29.488 219.399 27.904 219.651 26.176C219.903 24.412 220.353 22.738 221.001 21.154C221.649 19.57 222.531 18.274 223.647 17.266C224.799 16.222 226.257 15.7 228.021 15.7C228.705 15.7 229.317 15.862 229.857 16.186C230.433 16.474 230.847 16.906 231.099 17.482C231.351 17.194 231.693 16.96 232.125 16.78C232.557 16.6 233.079 16.51 233.691 16.51C233.907 16.51 234.141 16.528 234.393 16.564C234.681 16.6 234.969 16.654 235.257 16.726C235.041 17.554 234.789 18.688 234.501 20.128C234.213 21.568 233.961 23.152 233.745 24.88C233.565 26.572 233.475 28.228 233.475 29.848V30.064C233.475 30.748 233.511 31.558 233.583 32.494C233.655 33.43 233.781 34.348 233.961 35.248C234.141 36.148 234.393 36.904 234.717 37.516C235.041 38.128 235.455 38.434 235.959 38.434H236.013C236.301 38.434 236.607 38.29 236.931 38.002C237.291 37.714 237.669 37.174 238.065 36.382C238.605 35.338 239.109 33.988 239.577 32.332C239.649 32.008 239.793 31.846 240.009 31.846C240.189 31.846 240.279 32.062 240.279 32.494V32.71C240.207 33.646 239.955 34.708 239.523 35.896C239.091 37.084 238.479 38.11 237.687 38.974C236.931 39.838 236.013 40.27 234.933 40.27ZM225.051 35.788C225.627 35.788 226.149 35.374 226.617 34.546C227.121 33.718 227.571 32.71 227.967 31.522C228.363 30.334 228.705 29.182 228.993 28.066C229.425 26.41 229.713 24.736 229.857 23.044C230.001 21.316 230.307 19.624 230.775 17.968C230.343 17.5 229.857 17.266 229.317 17.266C228.525 17.266 227.715 17.662 226.887 18.454C226.059 19.246 225.411 20.146 224.943 21.154C224.367 22.414 223.935 23.89 223.647 25.582C223.395 27.274 223.269 28.894 223.269 30.442C223.269 30.838 223.269 31.234 223.269 31.63C223.305 32.026 223.341 32.404 223.377 32.764C223.449 33.844 223.647 34.618 223.971 35.086C224.331 35.554 224.691 35.788 225.051 35.788ZM93.0222 70V53.2727H103.052V55.0696H95.0477V60.7216H102.301V62.5185H95.0477V70H93.0222ZM109.952 70.294C109.157 70.294 108.435 70.1443 107.787 69.8448C107.139 69.5399 106.625 69.1016 106.243 68.5298C105.862 67.9527 105.672 67.2557 105.672 66.4389C105.672 65.7202 105.813 65.1375 106.096 64.6911C106.38 64.2391 106.758 63.8852 107.232 63.6293C107.705 63.3733 108.228 63.1828 108.8 63.0575C109.377 62.9268 109.957 62.8234 110.54 62.7472C111.302 62.6491 111.92 62.5756 112.394 62.5266C112.873 62.4722 113.221 62.3823 113.439 62.2571C113.662 62.1319 113.774 61.9141 113.774 61.6037V61.5384C113.774 60.7325 113.553 60.1063 113.112 59.6598C112.677 59.2133 112.015 58.9901 111.128 58.9901C110.207 58.9901 109.486 59.1915 108.963 59.5945C108.441 59.9974 108.073 60.4276 107.861 60.8849L106.031 60.2315C106.358 59.4692 106.793 58.8757 107.338 58.451C107.888 58.0208 108.487 57.7214 109.135 57.5526C109.788 57.3783 110.431 57.2912 111.062 57.2912C111.465 57.2912 111.928 57.3402 112.451 57.4382C112.979 57.5308 113.488 57.7241 113.978 58.0181C114.474 58.3121 114.885 58.7559 115.212 59.3494C115.538 59.9429 115.702 60.7379 115.702 61.7344V70H113.774V68.3011H113.676C113.545 68.5734 113.328 68.8647 113.023 69.1751C112.718 69.4854 112.312 69.7495 111.806 69.9673C111.299 70.1851 110.681 70.294 109.952 70.294ZM110.246 68.5625C111.008 68.5625 111.65 68.4128 112.173 68.1133C112.701 67.8138 113.099 67.4272 113.366 66.9535C113.638 66.4798 113.774 65.9815 113.774 65.4588V63.6946C113.692 63.7926 113.513 63.8825 113.235 63.9641C112.963 64.0404 112.647 64.1084 112.288 64.1683C111.934 64.2228 111.588 64.2718 111.25 64.3153C110.918 64.3535 110.649 64.3861 110.442 64.4134C109.941 64.4787 109.472 64.5849 109.037 64.7319C108.607 64.8735 108.258 65.0885 107.991 65.3771C107.73 65.6603 107.599 66.0469 107.599 66.5369C107.599 67.2067 107.847 67.7131 108.343 68.0561C108.843 68.3937 109.478 68.5625 110.246 68.5625ZM119.22 70V57.4545H121.082V59.3494H121.213C121.441 58.7287 121.855 58.225 122.454 57.8384C123.053 57.4518 123.728 57.2585 124.48 57.2585C124.621 57.2585 124.798 57.2612 125.011 57.2667C125.223 57.2721 125.384 57.2803 125.492 57.2912V59.2514C125.427 59.2351 125.277 59.2106 125.043 59.1779C124.815 59.1398 124.572 59.1207 124.316 59.1207C123.707 59.1207 123.162 59.2487 122.683 59.5046C122.209 59.7551 121.833 60.1036 121.556 60.5501C121.283 60.9911 121.147 61.4948 121.147 62.0611V70H119.22ZM127.777 70V57.4545H129.64V59.4148H129.803C130.064 58.745 130.486 58.225 131.069 57.8548C131.652 57.479 132.351 57.2912 133.168 57.2912C133.996 57.2912 134.684 57.479 135.234 57.8548C135.79 58.225 136.223 58.745 136.533 59.4148H136.664C136.985 58.7668 137.467 58.2522 138.109 57.8711C138.752 57.4845 139.522 57.2912 140.421 57.2912C141.543 57.2912 142.46 57.6424 143.173 58.3448C143.887 59.0418 144.243 60.1281 144.243 61.6037V70H142.316V61.6037C142.316 60.678 142.063 60.0165 141.556 59.619C141.05 59.2215 140.454 59.0227 139.767 59.0227C138.885 59.0227 138.202 59.2895 137.717 59.8232C137.233 60.3513 136.99 61.0211 136.99 61.8324V70H135.03V61.4077C135.03 60.6944 134.799 60.1199 134.336 59.6843C133.873 59.2433 133.277 59.0227 132.547 59.0227C132.046 59.0227 131.578 59.1561 131.142 59.4229C130.712 59.6897 130.364 60.06 130.097 60.5337C129.836 61.002 129.705 61.5438 129.705 62.1591V70H127.777Z" fill="#68513F"/>
</svg>
