<svg width="618" height="173" viewBox="0 0 618 173" fill="none" xmlns="http://www.w3.org/2000/svg">
<path d="M79.2828 166.076C79.0099 166.1 78.8653 166.021 78.8491 165.839L78.837 165.703C80.0055 164.407 81.3237 162.731 82.7914 160.675C84.3501 158.611 85.6733 156.476 86.761 154.271C87.9397 152.057 88.4522 150.086 88.2986 148.357C88.1692 146.902 87.3403 145.829 85.812 145.14C84.3665 144.351 82.5318 143.827 80.308 143.566C78.0761 143.214 75.7239 143.056 73.2514 143.093C70.8699 143.121 68.6784 143.224 66.677 143.402C65.5853 143.499 64.5845 143.588 63.6748 143.669C62.7651 143.75 62.0413 143.86 61.5035 143.999C53.3724 145.364 45.5385 146.977 38.0017 148.839C30.5559 150.693 23.6924 152.907 17.411 155.483C16.6165 155.828 15.8099 156.038 14.9911 156.11C13.8994 156.207 12.6349 155.907 11.1975 155.21C9.76008 154.512 8.96457 153.299 8.81094 151.571C8.71392 150.479 9.02223 149.306 9.73589 148.05C11.6889 143.2 14.499 137.678 18.1664 131.484C21.8337 125.289 25.9398 118.873 30.4846 112.234C35.0293 105.594 39.7227 99.0797 44.5646 92.6893C49.3985 86.2079 53.9998 80.2057 58.3687 74.6826C62.7375 69.1594 66.5009 64.5612 69.6588 60.8879C70.0975 60.6655 70.4907 60.4472 70.8384 60.2329C71.1781 59.9276 71.5258 59.7133 71.8816 59.59C69.0452 59.6587 65.4942 59.4242 61.2285 58.8864C57.0457 58.2495 51.8611 58.206 45.6748 58.7558C43.7644 58.9256 41.7255 59.1985 39.5583 59.5745C37.383 59.8595 35.1288 60.2891 32.7959 60.8632C28.3037 61.9043 24.509 63.5712 21.4118 65.8637C18.3065 68.0652 15.9988 70.471 14.4886 73.0809C12.9703 75.5999 12.3082 77.9511 12.5022 80.1345C12.6801 82.1359 13.6525 83.7917 15.4194 85.1017C17.2692 86.3127 19.9227 86.7646 23.3797 86.4573L25.1537 86.2997C26.957 85.956 29.1455 85.303 31.7191 84.3407C34.3755 83.2794 37.1028 81.9825 39.9008 80.4502C42.7897 78.9097 45.3936 77.257 47.7125 75.4921C47.8783 75.294 48.2341 75.1707 48.7799 75.1222C49.0529 75.0979 49.1974 75.1768 49.2136 75.3587C49.2298 75.5407 49.0802 75.9207 48.7648 76.4989C48.4413 76.9861 47.7741 77.7331 46.7633 78.7399C43.3992 82.1565 39.6895 84.7785 35.634 86.6061C31.5704 88.3426 27.6282 89.3807 23.8073 89.7203C21.7148 89.9063 19.6022 89.8648 17.4694 89.5959C14.2206 89.1511 11.5318 87.7854 9.40298 85.4989C7.35708 83.1133 6.19264 80.3285 5.90964 77.1444C5.60238 73.6873 6.52329 70.1211 8.67235 66.4458C10.8133 62.6795 14.4665 59.4206 19.6319 56.6692C24.8801 53.8187 31.9165 52.0013 40.7411 51.217L43.7432 50.9501C50.8635 50.5924 57.2762 50.5268 62.9813 50.7532C68.7774 50.9716 73.875 51.0687 78.2742 51.0445C79.5559 51.0223 80.502 51.3508 81.1126 52.0301C81.8141 52.7013 82.2053 53.4918 82.2861 54.4015C82.4155 55.8571 81.8757 57.0054 80.6667 57.8464C77.4705 60.0561 73.7799 63.41 69.595 67.9081C65.493 72.3072 61.2202 77.3633 56.7765 83.0765C52.4158 88.6906 48.1702 94.5695 44.0399 100.713C38.3832 109.285 33.3896 117.064 29.0592 124.051C24.8197 131.03 21.2059 137.311 18.2178 142.895C20.1869 142.353 23.2396 141.623 27.376 140.706C31.5952 139.689 36.3643 138.669 41.6833 137.646C47.0023 136.623 52.391 135.869 57.8495 135.384C63.6719 134.866 69.1708 134.836 74.3462 135.293C79.6126 135.742 83.939 136.962 87.3252 138.953C90.7115 140.945 92.5906 144.033 92.9625 148.218C93.2374 151.311 92.4874 154.22 90.7123 156.945C89.0363 159.753 86.9479 162.048 84.4471 163.829C83.9336 164.241 83.0562 164.686 81.8149 165.163C80.6727 165.723 79.8286 166.027 79.2828 166.076ZM102.166 145.887C100.165 146.065 98.2724 145.408 96.4893 143.916C94.7972 142.416 93.4376 140.015 92.4107 136.713C91.9093 135.199 91.4626 133.267 91.0704 130.918C90.7692 128.561 90.5013 126.063 90.2669 123.425C89.9111 119.422 89.6796 115.271 89.5725 110.971C89.5564 106.662 89.6636 102.71 89.8941 99.1136C90.1165 95.4261 90.5067 92.5947 91.0647 90.6196C91.4226 89.4874 92.1565 88.4594 93.2664 87.5356C94.4672 86.6036 96.0684 86.0487 98.0698 85.8708C99.4345 85.7495 100.815 85.8101 102.212 86.0528C102.028 87.0777 101.693 89.4916 101.205 93.2943C100.809 97.089 100.54 101.285 100.399 105.882C100.318 109.099 100.29 112.402 100.317 115.792C100.335 119.092 100.473 122.197 100.732 125.108C101.063 128.838 101.661 131.948 102.524 134.439C103.379 136.839 104.535 137.974 105.99 137.845C107.719 137.691 109.131 136.557 110.227 134.442C111.405 132.229 112.357 129.531 113.083 126.349C113.809 123.166 114.307 120.005 114.578 116.863C114.993 112.241 115.288 107.31 115.464 102.067C115.632 96.7343 115.959 92.1664 116.447 88.3637C116.623 87.2477 117.311 86.2238 118.512 85.2918C119.804 84.3517 121.45 83.7928 123.452 83.6149C124.816 83.4936 126.197 83.5542 127.594 83.7969C127.044 85.863 126.583 88.9298 126.211 92.9974C125.93 97.0569 125.777 101.518 125.75 106.38C125.724 111.242 125.921 116.038 126.341 120.769C126.552 123.134 126.873 125.719 127.306 128.523C127.829 131.319 128.544 133.685 129.45 135.622C130.446 137.551 131.672 138.45 133.128 138.321L133.264 138.309C133.992 138.244 134.733 137.812 135.487 137.011C136.332 136.202 137.166 134.753 137.989 132.662C138.604 131.324 139.107 129.766 139.499 127.989C139.891 126.212 140.317 124.295 140.776 122.237C141.067 121.386 141.395 120.944 141.759 120.912C142.213 120.871 142.489 121.397 142.586 122.489L142.635 123.034C142.663 125.416 142.265 128.156 141.44 131.255C140.615 134.355 139.299 137.085 137.492 139.446C135.775 141.799 133.552 143.097 130.823 143.34C127.73 143.615 125.177 142.741 123.163 140.72C121.141 138.607 119.58 135.995 118.478 132.884C117.368 129.681 116.589 126.587 116.14 123.601C115.713 126.023 115.196 128.453 114.587 130.891C113.979 133.329 113.164 135.511 112.143 137.435C109.313 142.73 105.987 145.547 102.166 145.887ZM142.274 154.426C141.365 154.506 140.853 153.91 140.74 152.636C140.716 152.363 140.77 151.946 140.904 151.384C142.519 145.83 144.287 140.447 146.208 135.233C148.211 129.92 150.268 124.694 152.379 119.555C150.921 116.567 149.604 113.612 148.428 110.691C147.251 107.77 146.19 105.113 145.244 102.722C145.052 107.782 144.591 112.912 143.861 118.112C143.222 123.303 142.378 127.734 141.328 131.403C141.128 132.246 140.801 132.688 140.346 132.728C139.618 132.793 139.202 132.234 139.097 131.051C139.08 130.869 139.06 130.642 139.036 130.369C139.012 130.096 139.041 129.91 139.124 129.811C139.924 126.439 140.552 122.669 141.007 118.503C141.454 114.245 141.703 109.822 141.753 105.233C141.895 100.635 141.78 96.2442 141.408 92.0594C141.367 91.6045 141.285 91.1992 141.162 90.8434C141.122 90.3885 141.085 89.9791 141.053 89.6152L141.004 89.0694C141.047 88.5154 141.093 88.007 141.144 87.544C141.285 87.073 141.423 86.5564 141.556 85.9944C142.056 84.3913 142.769 83.1358 143.697 82.2281C144.617 81.2294 145.818 80.2974 147.3 79.4322C147.474 79.325 147.743 79.2553 148.107 79.2229C149.107 79.134 149.767 79.8547 150.087 81.3851C150.43 83.1885 151.147 86.6091 152.237 91.6471C153.326 96.6851 155.01 102.22 157.289 108.253C158.36 105.865 159.477 103.474 160.64 101.078C161.802 98.6826 163.01 96.2829 164.264 93.8791C165.808 90.6243 167.215 87.886 168.485 85.6642C169.746 83.3514 170.555 82.1334 170.911 82.01C171.085 81.9029 171.445 81.8251 171.99 81.7766C172.718 81.7119 173.474 81.9656 174.259 82.5377C175.035 83.0189 175.484 83.9418 175.605 85.3064L175.629 85.5793C175.662 85.9432 175.184 87.2694 174.195 89.5579C173.289 91.7474 171.994 94.2007 170.31 96.9177C169.025 98.9576 167.453 101.39 165.595 104.214C163.737 107.038 161.737 110.333 159.596 114.1C160.51 116.127 161.63 118.412 162.956 120.953C164.373 123.486 165.968 125.958 167.741 128.368C169.506 130.687 171.326 132.588 173.2 134.072C175.066 135.465 176.954 136.076 178.865 135.907C179.683 135.834 180.399 135.633 181.012 135.303C183.023 134.207 184.565 132.466 185.636 130.078C186.799 127.683 187.672 125.129 188.256 122.418C188.841 119.707 189.317 117.327 189.685 115.277C189.861 114.161 190.13 113.587 190.494 113.554C191.313 113.481 191.751 113.763 191.807 114.4C191.955 115.029 192.008 115.62 191.965 116.174C191.838 117.836 191.59 119.692 191.222 121.742C190.846 123.701 190.483 125.292 190.133 126.515C189.001 130.283 187.184 133.563 184.681 136.352C182.269 139.134 178.925 140.715 174.649 141.095C171.283 141.394 168.287 140.698 165.661 139.006C163.035 137.313 160.819 135.081 159.014 132.307C157.209 129.533 155.722 126.731 154.553 123.901C152.618 127.924 150.675 132.36 148.722 137.21C146.86 142.052 145.088 147.39 143.405 153.225C143.197 153.977 142.82 154.377 142.274 154.426ZM216.607 135.853C213.605 136.12 211.155 135.375 209.256 133.618C207.35 131.77 205.895 129.332 204.893 126.304C203.973 123.176 203.351 119.793 203.028 116.154C202.68 112.242 202.568 108.401 202.691 104.63C202.898 100.761 203.144 97.3463 203.431 94.3866C203.809 91.4188 204.086 89.377 204.262 88.261C201.699 88.3055 199.661 88.074 198.149 87.5665C196.637 87.0591 195.34 86.3949 194.258 85.5741C194.282 89.9733 194.107 94.711 193.733 99.7874C193.45 104.856 193.015 109.754 192.426 114.483C191.83 119.12 191.086 123.129 190.194 126.51C189.935 127.725 189.397 128.369 188.578 128.441C187.941 128.498 187.586 128.117 187.513 127.298C187.497 127.116 187.477 126.889 187.453 126.616C187.519 126.335 187.586 126.054 187.653 125.773C188.737 121.459 189.56 116.801 190.125 111.799C190.681 106.706 191.025 101.816 191.159 97.1279C191.292 92.4397 191.222 88.549 190.947 85.4558L190.813 83.9547C188.45 83.1562 186.638 81.8502 185.376 80.0367C184.205 78.2152 183.543 76.4402 183.39 74.7116C183.277 73.438 183.403 72.2806 183.769 71.2394C184.226 70.1902 184.955 69.6211 185.955 69.5322L186.228 69.5079C187.502 69.3947 188.72 70.2034 189.882 71.934C191.037 73.5735 192.029 75.4567 192.86 77.5835C193.683 79.6193 194.151 81.2741 194.264 82.5477C195.429 83.2695 196.664 83.7557 197.97 84.0064C199.367 84.249 200.52 84.3299 201.43 84.249C202.613 84.1439 203.37 83.8932 203.701 83.497C204.364 82.7045 205.136 81.5815 206.015 80.1279C206.986 78.6663 208.608 77.8344 210.882 77.6322C212.429 77.4948 214.334 77.7839 216.599 78.4996C215.709 80.871 214.939 83.5527 214.288 86.5447C213.629 89.4458 213.122 92.5167 212.768 95.7574C212.742 96.4933 212.644 97.9691 212.474 100.185C212.304 102.401 212.208 104.931 212.186 107.775C212.164 110.62 212.278 113.452 212.529 116.272C212.884 120.275 213.609 123.787 214.703 126.807C215.879 129.728 217.65 131.084 220.016 130.874C221.471 130.744 222.692 130.04 223.679 128.76C224.665 127.48 225.491 125.94 226.156 124.139C226.814 122.246 227.342 120.457 227.742 118.771C228.135 116.994 228.423 115.593 228.607 114.568C228.716 113.733 229.043 113.291 229.589 113.243C230.044 113.202 230.316 113.683 230.405 114.683L230.466 115.366C230.838 119.551 230.38 123.167 229.092 126.216C227.887 129.165 226.166 131.473 223.931 133.139C221.686 134.714 219.245 135.619 216.607 135.853ZM269.16 131.182C266.34 131.433 263.988 130.771 262.106 129.196C260.216 127.53 258.649 125.377 257.406 122.737C256.246 119.997 255.358 117.234 254.744 114.446C254.121 111.567 253.713 109.036 253.519 106.852C252.791 111.043 251.736 115.172 250.356 119.237C249.066 123.294 247.533 126.686 245.758 129.411C243.975 132.045 241.901 133.467 239.535 133.678L239.399 133.69C237.216 133.884 235.307 133.045 233.674 131.173C232.032 129.21 230.698 126.577 229.671 123.276C228.644 119.975 227.957 116.368 227.609 112.456L227.488 111.092C227.164 107.453 227.127 103.421 227.376 98.998C227.616 94.4836 228.377 90.1522 229.659 86.0038C230.941 81.8554 232.879 78.3822 235.473 75.5842C238.149 72.6872 241.716 71.0406 246.174 70.6444C247.903 70.4908 249.486 70.7627 250.923 71.4602C252.443 72.0586 253.587 73.0573 254.353 74.4563C254.925 73.6719 255.737 73.0038 256.788 72.4519C257.839 71.9 259.138 71.5553 260.685 71.4178C261.231 71.3693 261.826 71.3623 262.471 71.3966C263.207 71.4229 263.947 71.4947 264.691 71.612C264.331 73.7529 263.949 76.6752 263.544 80.3789C263.14 84.0826 262.859 88.142 262.701 92.5573C262.626 96.8736 262.771 101.079 263.135 105.172L263.183 105.718C263.337 107.447 263.61 109.486 264.002 111.835C264.394 114.184 264.919 116.476 265.576 118.71C266.233 120.943 267.039 122.797 267.995 124.271C268.952 125.745 270.067 126.425 271.34 126.312L271.477 126.3C272.205 126.235 272.945 125.803 273.7 125.002C274.545 124.193 275.379 122.744 276.201 120.653C277.332 117.894 278.302 114.369 279.113 110.079C279.222 109.244 279.549 108.803 280.095 108.754C280.55 108.714 280.826 109.239 280.923 110.331L280.972 110.877C281 113.258 280.602 115.999 279.777 119.098C278.952 122.197 277.636 124.927 275.828 127.289C274.112 129.642 271.889 130.94 269.16 131.182ZM243.181 122.075C244.636 121.946 245.862 120.783 246.859 118.585C247.947 116.379 248.858 113.731 249.591 110.64C250.325 107.549 250.931 104.561 251.408 101.676C252.128 97.3941 252.48 93.099 252.463 88.7909C252.439 84.3918 252.832 80.0472 253.643 75.7573C252.446 74.6716 251.166 74.1894 249.801 74.3107C247.8 74.4886 245.842 75.6713 243.927 77.8587C242.013 80.0461 240.577 82.466 239.621 85.1184C238.448 88.4319 237.688 92.2589 237.34 96.5994C237.084 100.932 237.129 105.054 237.477 108.966C237.566 109.967 237.655 110.967 237.743 111.968C237.923 112.961 238.099 113.908 238.271 114.809C238.696 117.523 239.37 119.434 240.294 120.544C241.309 121.646 242.271 122.156 243.181 122.075ZM335.707 130.082C334.16 130.219 332.655 130.307 331.191 130.345C329.819 130.376 328.487 130.356 327.197 130.288C319.814 129.752 314.418 128.352 311.007 126.088C307.597 123.823 305.754 121.144 305.479 118.051C305.236 115.322 306.04 112.5 307.89 109.585C309.823 106.57 312.507 103.764 315.944 101.167C319.464 98.4697 323.574 96.2247 328.274 94.4315C332.967 92.5474 338.042 91.3628 343.501 90.8776C344.956 90.7483 346.651 90.7351 348.586 90.8383C350.513 90.8504 351.761 90.9687 352.331 91.1931C352.901 91.4175 353.206 91.7572 353.247 92.212C353.304 92.8489 352.786 93.2158 351.694 93.3128L350.876 93.3856C349.966 93.4664 349.006 93.5058 347.998 93.5038C346.981 93.4108 345.972 93.4088 344.971 93.4977C340.604 93.8858 336.522 94.8905 332.723 96.5119C328.924 98.1332 325.613 100.078 322.789 102.346C319.964 104.615 317.797 107.054 316.287 109.664C314.768 112.183 314.11 114.579 314.313 116.854C314.539 119.401 315.878 121.574 318.331 123.374C320.874 125.165 324.82 126.235 330.169 126.585C331.178 126.587 332.232 126.585 333.332 126.579C334.44 126.664 335.494 126.662 336.495 126.573C341.499 126.128 346.202 124.885 350.605 122.843C355.009 120.801 358.867 118.304 362.18 115.35C365.577 112.297 368.18 109.086 369.989 105.716C371.799 102.346 372.57 99.1597 372.303 96.1575C372.109 93.9741 371.29 91.9838 369.847 90.1865C368.494 88.3811 366.343 86.876 363.394 85.6711C359.973 84.3246 356.304 83.2753 352.386 82.5232C348.551 81.6721 344.674 80.8704 340.756 80.1183C336.838 79.3662 333.09 78.4615 329.512 77.4041C325.933 76.3468 322.728 74.8436 319.896 72.8947C317.848 71.518 316.28 69.8693 315.192 67.9487C314.196 66.02 313.6 63.964 313.406 61.7806C313.172 59.1423 313.533 56.497 314.489 53.8446C315.437 51.1012 316.815 48.5489 318.622 46.1876C321.507 42.5385 324.995 39.4778 329.085 37.0053C333.166 34.4419 337.524 32.4041 342.158 30.892C346.791 29.3798 351.337 28.4256 355.795 28.0294L356.341 27.9809C364.983 27.2128 371.382 28.0195 375.536 30.4011C379.774 32.6836 382.046 35.5533 382.353 39.0104C382.596 41.7396 381.656 44.574 379.533 47.5134C377.402 50.3619 374.28 52.8859 370.166 55.0855C366.043 57.194 361.026 58.5111 355.112 59.0366L354.566 59.0851C354.021 59.1337 353.5 58.9507 353.005 58.5362C352.592 58.0227 352.37 57.584 352.338 57.2201C352.297 56.7653 352.504 56.5176 352.959 56.4772C356.962 56.1214 360.657 54.8761 364.043 52.7413C367.52 50.5984 370.233 48.1107 372.182 45.2784C374.214 42.347 375.121 39.6532 374.903 37.1969C374.717 35.1044 373.463 33.382 371.142 32.0295C368.904 30.5779 365.238 30.0785 360.143 30.5313L359.734 30.5677C355.367 30.9558 350.974 32.0798 346.555 33.9397C342.226 35.7915 338.257 38.0698 334.646 40.7748C331.035 43.4797 328.177 46.3929 326.07 49.5143C323.956 52.5448 323.028 55.5156 323.286 58.4268C323.44 60.1553 324.09 61.7938 325.236 63.3424C326.382 64.891 328.153 66.2466 330.549 67.4091C333.622 68.9698 337.303 70.1556 341.593 70.9663C345.974 71.7689 350.496 72.6049 355.158 73.4743C359.902 74.2446 364.353 75.3161 368.51 76.6889C372.666 78.0616 376.098 80.049 378.805 82.6509C381.595 85.1537 383.184 88.5885 383.572 92.9553C383.653 93.8651 383.692 94.8243 383.69 95.8331C383.688 96.8419 383.595 97.8588 383.411 98.8838C382.657 103.811 380.659 108.16 377.419 111.933C374.17 115.614 370.182 118.719 365.455 121.248C360.729 123.777 355.726 125.781 350.448 127.258C345.26 128.728 340.346 129.669 335.707 130.082ZM409.446 120.639C405.08 121.027 401.414 120.024 398.451 117.628C395.57 115.133 393.319 111.986 391.697 108.188C390.159 104.29 389.22 100.431 388.88 96.6097C388.492 92.2429 388.559 87.8357 389.081 83.3881C389.594 78.8494 390.644 74.6757 392.231 70.8669C393.909 67.0501 396.153 63.9165 398.961 61.4663C401.761 58.9251 405.208 57.4726 409.301 57.1087C412.213 56.85 414.564 57.5121 416.355 59.0951C418.146 60.6781 419.191 63.1526 419.491 66.5186C419.895 71.0674 419.117 75.2168 417.158 78.967C415.282 82.6181 412.758 85.6849 409.586 88.1675C406.414 90.65 403.045 92.4624 399.479 93.6046L399.539 94.2869C399.871 98.0169 400.546 101.487 401.565 104.697C402.667 107.809 404.171 110.288 406.077 112.136C408.067 113.885 410.517 114.63 413.428 114.371C416.976 114.056 419.576 112.358 421.228 109.277C422.871 106.105 424.037 102.196 424.724 97.5502C424.783 97.1782 424.891 96.8476 425.049 96.5585C425.289 96.1704 425.501 95.9682 425.683 95.952C426.501 95.8793 426.918 96.4383 426.932 97.629C426.877 100.11 426.538 102.478 425.913 104.734C425.288 106.99 424.59 108.932 423.817 110.56C422.34 113.533 420.437 115.857 418.11 117.531C415.882 119.288 412.994 120.324 409.446 120.639ZM399.336 90.4539C402.183 89.4673 404.605 87.8308 406.602 85.5443C408.592 83.1669 410.048 80.47 410.972 77.4537C411.987 74.4293 412.361 71.416 412.094 68.4139L412.034 67.7316C411.888 66.094 411.478 64.5717 410.802 63.1646C410.218 61.7495 409.244 61.1025 407.879 61.2238C406.242 61.3693 404.859 62.3175 403.731 64.0682C402.685 65.7199 401.817 67.8143 401.126 70.3515C400.525 72.8806 400.069 75.4885 399.758 78.1753C399.447 80.8621 399.252 83.3093 399.173 85.517C399.185 87.7165 399.235 89.3167 399.324 90.3174L399.336 90.4539ZM443.178 115.303C441.176 115.481 439.446 114.58 437.986 112.601C436.609 110.523 435.449 107.784 434.505 104.383C433.553 100.892 432.709 97.0697 431.973 92.9172C431.237 88.7648 430.6 84.6951 430.063 80.7084C429.751 83.3952 429.369 86.3175 428.916 89.4753C428.455 92.5422 427.874 95.8031 427.172 99.2581C426.988 100.283 426.804 101.308 426.62 102.333C426.428 103.267 426.191 104.205 425.908 105.147C425.649 106.362 425.156 107.002 424.428 107.067C423.791 107.123 423.424 106.606 423.327 105.514C423.262 104.786 423.368 103.906 423.642 102.873L424.731 98.0997C425.783 93.4216 426.49 89.0033 426.854 84.8447C427.21 80.5952 427.408 76.6348 427.449 72.9634C427.467 72.1366 427.439 71.3138 427.367 70.495C427.377 69.5772 427.346 68.7088 427.273 67.8901C427.151 66.5255 426.993 65.2559 426.797 64.0813C426.601 62.9067 426.425 61.9595 426.269 61.2398C427.579 59.4729 429.371 58.4884 431.646 58.2862L431.782 58.2741C434.148 58.0639 435.778 59.3861 436.674 62.2407C437.66 65.0872 438.343 68.6483 438.723 72.9241L439.039 76.4721C439.144 77.6548 439.347 79.4248 439.648 81.782C439.949 84.1393 440.362 86.7159 440.885 89.5119C441.409 92.3078 442.011 94.9592 442.693 97.4661C443.374 99.973 444.155 102.058 445.037 103.722C445.91 105.295 446.847 106.037 447.848 105.948C449.394 105.811 450.861 104.259 452.248 101.293C453.627 98.2365 454.609 94.8482 455.196 91.1283C455.289 90.1114 455.419 88.9995 455.587 87.7926C455.755 86.5857 455.869 85.2918 455.93 83.911C455.313 82.1319 454.775 80.2083 454.316 78.1402C453.857 76.072 453.502 74.1322 453.249 72.3208C452.988 70.4184 452.817 69.0124 452.737 68.1026C452.615 66.738 452.503 64.9599 452.4 62.7685C452.297 60.577 452.33 58.3734 452.5 56.1576C452.761 53.9338 453.236 52.0577 453.925 50.5294C454.607 48.91 455.675 48.0357 457.131 47.9063C458.404 47.7931 459.577 48.6058 460.648 50.3445C461.407 51.6525 461.919 53.8076 462.186 56.8097C462.509 60.4487 462.434 64.765 461.961 69.7585C461.48 74.661 460.693 79.7283 459.599 84.9603C460.507 85.8882 461.576 86.5726 462.807 87.0133C464.03 87.3631 465.233 87.4854 466.416 87.3803C469.418 87.1135 472.066 85.9611 474.361 83.9233C474.966 83.5028 475.495 83.2724 475.95 83.2319C476.223 83.2077 476.38 83.423 476.42 83.8779C476.485 84.6057 476.26 85.1758 475.747 85.5882C472.971 88.4023 469.718 89.9751 465.988 90.3066C463.259 90.5492 460.866 89.9366 458.81 88.4689C457.66 93.0641 456.303 97.4026 454.741 101.484C453.17 105.475 451.398 108.75 449.425 111.309C447.534 113.77 445.452 115.101 443.178 115.303ZM512.766 109.531C509.946 109.782 507.595 109.119 505.712 107.545C503.822 105.879 502.255 103.726 501.012 101.085C499.852 98.346 498.964 95.5823 498.35 92.7945C497.727 89.9156 497.319 87.3845 497.125 85.2011C496.397 89.392 495.342 93.5202 493.962 97.5858C492.672 101.643 491.139 105.035 489.364 107.76C487.581 110.394 485.507 111.816 483.142 112.026L483.005 112.038C480.822 112.233 478.913 111.394 477.28 109.521C475.638 107.558 474.304 104.926 473.277 101.625C472.25 98.3234 471.563 94.7168 471.215 90.8049L471.094 89.4403C470.77 85.8013 470.733 81.7701 470.982 77.3467C471.222 72.8323 471.983 68.5009 473.265 64.3525C474.547 60.2041 476.485 56.7309 479.079 53.9329C481.755 51.0359 485.323 49.3893 489.78 48.9931C491.509 48.8395 493.092 49.1114 494.529 49.8089C496.05 50.4073 497.193 51.4061 497.959 52.805C498.531 52.0207 499.343 51.3525 500.394 50.8006C501.445 50.2487 502.744 49.904 504.291 49.7666C504.837 49.718 505.432 49.711 506.077 49.7454C506.813 49.7716 507.553 49.8434 508.297 49.9607C507.937 52.1016 507.555 55.0239 507.15 58.7276C506.746 62.4313 506.465 66.4908 506.307 70.9061C506.232 75.2223 506.377 79.4273 506.741 83.5212L506.789 84.0671C506.943 85.7956 507.216 87.8344 507.608 90.1836C508 92.5328 508.525 94.8243 509.182 97.0583C509.839 99.2922 510.645 101.146 511.602 102.62C512.558 104.094 513.673 104.774 514.946 104.661L515.083 104.649C515.811 104.584 516.552 104.151 517.306 103.351C518.151 102.542 518.985 101.093 519.808 99.0022C520.938 96.2426 521.908 92.7179 522.719 88.4279C522.828 87.593 523.156 87.1513 523.701 87.1028C524.156 87.0623 524.432 87.588 524.529 88.6797L524.578 89.2255C524.606 91.607 524.208 94.3474 523.383 97.4466C522.558 100.546 521.242 103.276 519.434 105.637C517.718 107.99 515.495 109.288 512.766 109.531ZM486.787 100.424C488.242 100.295 489.468 99.1313 490.465 96.9337C491.553 94.7281 492.464 92.0798 493.198 88.9886C493.931 85.8975 494.537 82.9095 495.014 80.0246C495.734 75.7428 496.086 71.4478 496.07 67.1396C496.045 62.7405 496.439 58.3959 497.249 54.106C496.053 53.0203 494.772 52.5382 493.407 52.6594C491.406 52.8373 489.448 54.02 487.533 56.2074C485.619 58.3948 484.183 60.8147 483.227 63.4671C482.054 66.7806 481.294 70.6076 480.946 74.9481C480.69 79.2805 480.735 83.4027 481.083 87.3146C481.172 88.3153 481.261 89.316 481.35 90.3167C481.53 91.3094 481.705 92.2565 481.877 93.1582C482.302 95.8713 482.976 97.7828 483.9 98.8927C484.915 99.9945 485.877 100.505 486.787 100.424ZM549.9 106.231C546.897 106.497 544.447 105.752 542.549 103.996C540.643 102.148 539.188 99.7096 538.185 96.6811C537.265 93.5536 536.644 90.1704 536.32 86.5314C535.973 82.6194 535.861 78.7783 535.984 75.0079C536.19 71.1385 536.437 67.7239 536.724 64.7642C537.102 61.7964 537.379 59.7545 537.555 58.6386C534.991 58.683 532.954 58.4515 531.441 57.944C529.929 57.4366 528.632 56.7725 527.551 55.9517C527.575 60.3508 527.4 65.0885 527.026 70.1649C526.743 75.2332 526.307 80.1317 525.719 84.8603C525.122 89.498 524.378 93.507 523.487 96.8872C523.228 98.1022 522.689 98.7461 521.87 98.8189C521.234 98.8755 520.879 98.4944 520.806 97.6756C520.79 97.4936 520.77 97.2662 520.745 96.9933C520.812 96.7123 520.879 96.4313 520.946 96.1503C522.029 91.836 522.853 87.1782 523.417 82.1766C523.973 77.084 524.318 72.1936 524.451 67.5054C524.585 62.8172 524.514 58.9265 524.239 55.8334L524.106 54.3323C521.743 53.5337 519.93 52.2277 518.669 50.4142C517.498 48.5927 516.836 46.8177 516.682 45.0892C516.569 43.8155 516.696 42.6581 517.062 41.617C517.518 40.5677 518.247 39.9987 519.248 39.9097L519.521 39.8855C520.795 39.7723 522.013 40.5809 523.175 42.3115C524.329 43.9511 525.322 45.8342 526.153 47.961C526.976 49.9969 527.444 51.6516 527.557 52.9252C528.721 53.647 529.957 54.1332 531.263 54.3839C532.66 54.6265 533.813 54.7074 534.723 54.6265C535.905 54.5214 536.662 54.2707 536.994 53.8745C537.657 53.082 538.428 51.959 539.308 50.5054C540.278 49.0438 541.901 48.2119 544.175 48.0097C545.722 47.8723 547.627 48.1614 549.891 48.8771C549.002 51.2485 548.231 53.9302 547.58 56.9223C546.921 59.8233 546.415 62.8942 546.061 66.135C546.035 66.8708 545.937 68.3466 545.767 70.5624C545.597 72.7781 545.501 75.3082 545.479 78.1527C545.456 80.9972 545.571 83.8295 545.821 86.6497C546.177 90.6526 546.902 94.1642 547.995 97.1846C549.172 100.106 550.943 101.461 553.308 101.251C554.764 101.122 555.985 100.417 556.972 99.1376C557.958 97.8579 558.784 96.3174 559.449 94.5161C560.106 92.6239 560.635 90.8347 561.035 89.1487C561.427 87.3716 561.715 85.9706 561.899 84.9456C562.009 84.1107 562.336 83.669 562.882 83.6205C563.337 83.58 563.609 84.0602 563.698 85.0609L563.758 85.7432C564.13 89.928 563.672 93.5448 562.385 96.5934C561.18 99.543 559.459 101.851 557.223 103.517C554.979 105.091 552.538 105.996 549.9 106.231ZM602.452 101.56C599.632 101.81 597.281 101.148 595.399 99.5734C593.509 97.9075 591.942 95.7544 590.699 93.1141C589.538 90.3748 588.651 87.6112 588.036 84.8233C587.414 81.9444 587.005 79.4133 586.811 77.2299C586.083 81.4208 585.029 85.549 583.648 89.6146C582.358 93.672 580.826 97.0633 579.051 99.7885C577.268 102.423 575.193 103.845 572.828 104.055L572.692 104.067C570.508 104.261 568.6 103.422 566.966 101.55C565.325 99.5872 563.99 96.955 562.964 93.6536C561.937 90.3523 561.249 86.7456 560.902 82.8337L560.78 81.4691C560.457 77.8301 560.419 73.7989 560.668 69.3755C560.909 64.8611 561.67 60.5298 562.952 56.3813C564.234 52.2329 566.171 48.7597 568.765 45.9618C571.442 43.0647 575.009 41.4181 579.467 41.0219C581.195 40.8683 582.778 41.1402 584.216 41.8377C585.736 42.4362 586.879 43.4349 587.645 44.8339C588.218 44.0495 589.029 43.3813 590.081 42.8294C591.132 42.2775 592.431 41.9328 593.977 41.7954C594.523 41.7469 595.119 41.7398 595.763 41.7742C596.499 41.8005 597.239 41.8722 597.983 41.9895C597.623 44.1304 597.241 47.0527 596.837 50.7564C596.432 54.4601 596.151 58.5196 595.994 62.9349C595.919 67.2511 596.063 71.4562 596.427 75.55L596.476 76.0959C596.629 77.8244 596.902 79.8632 597.294 82.2124C597.687 84.5616 598.211 86.8531 598.868 89.0871C599.525 91.321 600.332 93.1749 601.288 94.6487C602.244 96.1225 603.359 96.8028 604.633 96.6896L604.769 96.6775C605.497 96.6128 606.238 96.1802 606.992 95.3796C607.837 94.5709 608.671 93.1214 609.494 91.031C610.624 88.2715 611.595 84.7467 612.405 80.4568C612.515 79.6218 612.842 79.1801 613.388 79.1316C613.843 79.0912 614.119 79.6168 614.216 80.7085L614.264 81.2543C614.293 83.6358 613.894 86.3762 613.069 89.4754C612.244 92.5746 610.928 95.3048 609.121 97.6661C607.405 100.019 605.182 101.317 602.452 101.56ZM576.473 92.4529C577.929 92.3235 579.155 91.1601 580.152 88.9626C581.239 86.7569 582.15 84.1086 582.884 81.0175C583.618 77.9264 584.223 74.9384 584.701 72.0534C585.42 67.7716 585.772 63.4766 585.756 59.1684C585.732 54.7693 586.125 50.4247 586.936 46.1348C585.739 45.0492 584.458 44.567 583.094 44.6883C581.092 44.8661 579.134 46.0488 577.22 48.2362C575.305 50.4236 573.87 52.8435 572.914 55.4959C571.741 58.8094 570.981 62.6364 570.633 66.9769C570.376 71.3093 570.422 75.4315 570.769 79.3434C570.858 80.3441 570.947 81.3448 571.036 82.3456C571.216 83.3382 571.392 84.2854 571.564 85.187C571.988 87.9001 572.662 89.8116 573.586 90.9215C574.601 92.0233 575.564 92.5338 576.473 92.4529Z" fill="#68513F"/>
</svg>
